<svg id="Laag_1" data-name="Laag 1" xmlns="http://www.w3.org/2000/svg" xmlns:xlink="http://www.w3.org/1999/xlink" viewBox="0 0 1203.7 664.18"><defs><style>.cls-1{fill:url(#Naamloos_verloop_25);}.cls-2{fill:url(#Naamloos_verloop_25-2);}.cls-3{fill:url(#Naamloos_verloop_25-3);}.cls-4{fill:url(#Naamloos_verloop_25-4);}.cls-5{fill:url(#Naamloos_verloop_25-5);}</style><linearGradient id="Naamloos_verloop_25" x1="42.42" y1="549.7" x2="1367.12" y2="546.01" gradientTransform="matrix(1, 0, 0, 1, 0.52, -0.92)" gradientUnits="userSpaceOnUse"><stop offset="0.06" stop-color="#fcbadc"/><stop offset="0.24" stop-color="#9b8cf8"/><stop offset="0.25" stop-color="#a090ec"/><stop offset="0.28" stop-color="#b6a2b5"/><stop offset="0.31" stop-color="#c9b285"/><stop offset="0.34" stop-color="#dac05c"/><stop offset="0.37" stop-color="#e7cb3b"/><stop offset="0.4" stop-color="#f2d321"/><stop offset="0.43" stop-color="#f9d90f"/><stop offset="0.46" stop-color="#fedd04"/><stop offset="0.5" stop-color="#ffde00"/><stop offset="0.55" stop-color="#c4d536"/><stop offset="0.63" stop-color="#5cc596"/><stop offset="0.69" stop-color="#1abbd2"/><stop offset="0.72" stop-color="#00b7ea"/><stop offset="0.78" stop-color="#36c4ec"/><stop offset="0.93" stop-color="#bbe4ef"/><stop offset="1" stop-color="#f1f1f1"/></linearGradient><linearGradient id="Naamloos_verloop_25-2" x1="42.07" y1="424.06" x2="1366.77" y2="420.37" xlink:href="#Naamloos_verloop_25"/><linearGradient id="Naamloos_verloop_25-3" x1="41.8" y1="327.41" x2="1366.5" y2="323.72" xlink:href="#Naamloos_verloop_25"/><linearGradient id="Naamloos_verloop_25-4" x1="42.42" y1="549.16" x2="1367.12" y2="545.47" xlink:href="#Naamloos_verloop_25"/><linearGradient id="Naamloos_verloop_25-5" x1="42.07" y1="423.8" x2="1366.77" y2="420.11" xlink:href="#Naamloos_verloop_25"/></defs><path class="cls-1" d="M1103.63,380.72l-10.27,41.12,127.38,20.54s-59.57,131.51-168.47,207.53-242.46,35-242.46,35S832.39,728,976.25,709.51s182.84-71.94,230.13-123.31,78.06-182.87,78.06-182.87Z" transform="translate(-80.73 -50.35)"/><path class="cls-2" d="M1076.92,337.91c2-16.77,0-131.81,0-131.81L864.26,257.44l11.29,37,150-37c4.13,8.2-4.08,74-4.08,74s-12.32,108.9-82.18,199.3S735.81,637.58,735.81,637.58c119.21,4.11,215.77-65.73,271.26-121.23S1075.18,351.85,1076.92,337.91Z" transform="translate(-80.73 -50.35)"/><path class="cls-3" d="M705.42,600.82C824.56,479.85,837,387.5,837,387.5c1.17-16.32,4.2-43.12,4.18-61.62-.06-41.16-12.92-78.48-28.61-115.11C772.38,117,695.65,50.35,695.65,50.35c-193.29,123-169.14,314.14-169.14,314.14s4.29,57.56,24.78,111c20.15,52.61,76.09,117.4,77.85,119.43-1.38-2.26-45.32-75.19-61.4-137.9-16.34-63.75,8.39-147.93,8.39-147.93,8.31-53.41,117.39-180.67,117.39-180.67,39,55.54,82,154.21,82,154.21,34.81,84.29,12.12,158.25,12.12,158.25C771.58,524.47,709.29,596.42,705.42,600.82Z" transform="translate(-80.73 -50.35)"/><path class="cls-4" d="M312.94,650.35c-108.89-76-168.5-207.55-168.5-207.55l127.4-20.55-10.28-41.11L80.73,403.77s30.85,131.51,78.11,182.88S245.14,691.43,389,709.93s166.43-24.68,166.43-24.68S421.86,726.36,312.94,650.35Z" transform="translate(-80.73 -50.35)"/><path class="cls-5" d="M426,531.13c-69.84-90.39-82.19-199.28-82.19-199.28s-8.22-65.76-4.11-74l150,37,11.27-37L288.29,206.51s-2.07,115.08,0,131.82c1.74,14,14.39,123,69.88,178.43S510.21,642.11,629.39,638C629.39,638,495.84,621.57,426,531.13Z" transform="translate(-80.73 -50.35)"/></svg>